<?xml version="1.0" encoding="UTF-8" standalone="no"?>
<svg width="340px" height="340px" viewBox="0 0 340 340" version="1.1" xmlns="http://www.w3.org/2000/svg" xmlns:xlink="http://www.w3.org/1999/xlink" xmlns:sketch="http://www.bohemiancoding.com/sketch/ns">
    <!-- Generator: Sketch 3.5.2 (25235) - http://www.bohemiancoding.com/sketch -->
    <title>elf</title>
    <desc>Created with Sketch.</desc>
    <defs></defs>
    <g id="Page-1" stroke="none" stroke-width="1" fill="none" fill-rule="evenodd" sketch:type="MSPage">
        <g id="elf" sketch:type="MSLayerGroup" transform="translate(8.000000, 8.000000)" stroke="#FFFFFF">
            <circle id="border" stroke-width="15" sketch:type="MSShapeGroup" cx="162" cy="162" r="162"></circle>
            <g id="Group-5" transform="translate(47.000000, 33.000000)" sketch:type="MSShapeGroup">
                <path d="M51.1490643,117.45262 C18.0498614,136.920873 10.6142328,179.234776 41.2748009,206.789845 C71.935369,234.344913 140.54139,227.21678 174.453901,172.843451 C208.366412,118.470121 208.297551,49.622937 194.356832,37.0942233 C193.753887,36.5523487 192.793132,36.8511283 191.490098,37.8249005 C186.916592,44.5765212 163.449912,72.3383975 139.38907,84.6771479 C115.328227,97.0158983 67.6091337,107.771155 51.1490643,117.45262 L51.1490643,117.45262 Z" id="righttooth" stroke-width="15"></path>
                <path d="M77.9306223,108.37194 C77.9306223,108.37194 131.378714,124.788815 135.863331,143.191927 C140.347949,161.595039 113.335369,182.958606 98.5873898,185.464909 C83.8394106,187.971212 69.8047543,160.732601 69.8047543,160.732601" id="Path-16" stroke-width="10"></path>
            </g>
        </g>
    </g>
</svg>