<svg width="340" height="340" viewBox="0 0 340 340" xmlns="http://www.w3.org/2000/svg"><title>half-orc</title><g transform="translate(8 8)" fill="none" fill-rule="evenodd"><circle stroke="#FFF" stroke-width="15" cx="162" cy="162" r="162"/><g fill="#FFF"><path d="M237.694 149.537c-.663 3.74-1.596 7.51-2.9 11.174-7.98 22.398-14 21.976-17.27 32.005-6.576 20.166-.75 45.19 22.75 45.19s37.357-28.185 30.95-62.952C264.816 140.185 250.96 112 240.274 112c-.46 0-.754.476-.933 1.355.643 4.45.982 9.08.982 13.832 0 7.87-.93 15.405-2.628 22.35zM87.094 149.537c.663 3.74 1.596 7.51 2.902 11.174 7.98 22.398 13.997 21.976 17.268 32.005 6.576 20.166.75 45.19-22.75 45.19s-37.357-28.185-30.95-62.952C59.972 140.185 73.828 112 84.514 112c.46 0 .754.476.934 1.355-.643 4.45-.98 9.08-.98 13.832 0 7.87.928 15.405 2.626 22.35z"/></g><g stroke-width="7" stroke="#FFF"><path d="M44.27 211.98s5.914 34.278 40.134 34.278c17.32 0 27.39-10.786 32.32-20.278 7.276-14 43.776-14 43.776-14M279.73 211.98s-5.914 34.278-40.134 34.278c-17.32 0-27.39-10.786-32.32-20.278-7.276-14-43.776-14-43.776-14"/><path d="M157 212.25h5" stroke-linecap="square"/></g></g></svg>