<?xml version="1.0" encoding="UTF-8" standalone="no"?>
<svg width="340px" height="340px" viewBox="0 0 340 340" version="1.1" xmlns="http://www.w3.org/2000/svg" xmlns:xlink="http://www.w3.org/1999/xlink" xmlns:sketch="http://www.bohemiancoding.com/sketch/ns">
    <!-- Generator: Sketch 3.5.2 (25235) - http://www.bohemiancoding.com/sketch -->
    <title>halfling</title>
    <desc>Created with Sketch.</desc>
    <defs></defs>
    <g id="Page-1" stroke="none" stroke-width="1" fill="none" fill-rule="evenodd" sketch:type="MSPage">
        <g id="halfling" sketch:type="MSLayerGroup" transform="translate(8.000000, 8.000000)">
            <circle id="border" stroke="#FFFFFF" stroke-width="15" sketch:type="MSShapeGroup" cx="162" cy="162" r="162"></circle>
            <path d="M314.046613,218.036544 C320.484469,200.574262 324,181.697679 324,162 C324,72.5298705 251.470129,0 162,0 C72.5298705,0 0,72.5298705 0,162 C0,181.704762 3.51805927,200.587837 9.96033293,218.05538 C39.8853857,162.506381 98.5887436,125 162.242158,125 C225.888377,125 284.204436,162.4979 314.046613,218.036544 Z" id="border-copy-3" stroke="#FFFFFF" stroke-width="15" sketch:type="MSShapeGroup"></path>
            <path d="M31.024107,210.737439 C55.5424046,174.473941 91.8987873,148.26013 133.897973,138.832414 L173.821641,135.085244 C187.919033,135.548748 201.586405,137.871878 214.623315,141.836706 L290.796875,192.830677 L275.218879,208.19997 L236.968273,221.820312 L236.968273,192.830677 L138.572159,221.820312 L180.754959,186.765263 L78.2639672,219.879022 L113.614035,186.765263 L31.024107,210.737439 L31.024107,210.737439 Z" id="border-copy-2" stroke="#FFFFFF" stroke-width="15" fill="#FFFFFF" sketch:type="MSShapeGroup"></path>
            <g id="eyes" transform="translate(76.000000, 248.000000)" fill="#FFFFFF" sketch:type="MSShapeGroup">
                <path d="M26.5,52 C41.1355459,52 53,40.3594035 53,26 C53,11.6405965 41.1355459,0 26.5,0 C11.8644541,0 0,11.6405965 0,26 C0,40.3594035 11.8644541,52 26.5,52 L26.5,52 Z M26,33 C31.5228475,33 36,28.5228475 36,23 C36,17.4771525 31.5228475,13 26,13 C20.4771525,13 16,17.4771525 16,23 C16,28.5228475 20.4771525,33 26,33 L26,33 Z" id="Oval-4"></path>
                <path d="M145.5,52 C160.135546,52 172,40.3594035 172,26 C172,11.6405965 160.135546,0 145.5,0 C130.864454,0 119,11.6405965 119,26 C119,40.3594035 130.864454,52 145.5,52 L145.5,52 Z M145,33 C150.522847,33 155,28.5228475 155,23 C155,17.4771525 150.522847,13 145,13 C139.477153,13 135,17.4771525 135,23 C135,28.5228475 139.477153,33 145,33 L145,33 Z" id="Oval-4"></path>
            </g>
        </g>
    </g>
</svg>