<?xml version="1.0" encoding="UTF-8" standalone="no"?>
<svg width="340px" height="340px" viewBox="0 0 340 340" version="1.1" xmlns="http://www.w3.org/2000/svg" xmlns:xlink="http://www.w3.org/1999/xlink" xmlns:sketch="http://www.bohemiancoding.com/sketch/ns">
    <!-- Generator: Sketch 3.5.2 (25235) - http://www.bohemiancoding.com/sketch -->
    <title>tiefling</title>
    <desc>Created with Sketch.</desc>
    <defs></defs>
    <g id="Page-1" stroke="none" stroke-width="1" fill="none" fill-rule="evenodd" sketch:type="MSPage">
        <g id="tiefling" sketch:type="MSLayerGroup" transform="translate(8.000000, 8.000000)">
            <path d="M172.078126,230.461967 L211.76789,230.63804 C211.76789,230.63804 198.488113,207.359507 199.551731,187.105975 C200.615349,166.852443 203.766156,156.767386 216.137483,147.431747 C228.50881,138.096107 241.663798,139.182078 253.561689,146.349029 C265.45958,153.515981 266.141964,165.908472 266.100889,175.209225 C266.059813,184.509978 264.481105,186.683452 255.79749,191.707522 C247.113875,196.731593 241.499976,194.079579 238.100217,187.105975 C234.700459,180.132371 229.594808,167.459389 229.594808,167.459389 C229.594808,167.459389 218.335834,189.155074 219.720722,200.119607 C221.105609,211.084141 230.89807,224.048421 248.88818,222.486126 C266.878289,220.92383 277.382135,215.80838 285.976589,200.119607 C294.571044,184.430835 296.382483,160.010718 290.82225,143.324254 C285.262017,126.63779 272.963452,112.498392 255.79749,106.157094 C238.631528,99.8157962 225.074798,103.865681 209.525709,110.90318 C193.97662,117.940679 166.529826,148.10107 165.153936,175.209225 C163.778046,202.31738 172.078126,230.461967 172.078126,230.461967 Z" id="Path-20" fill="#FFFFFF" sketch:type="MSShapeGroup"></path>
            <path d="M151.5735,230.461967 L111.883736,230.63804 C111.883736,230.63804 125.163512,207.359507 124.099895,187.105975 C123.036277,166.852443 119.885469,156.767386 107.514143,147.431747 C95.1428161,138.096107 81.9878278,139.182078 70.0899367,146.349029 C58.1920456,153.515981 57.5096614,165.908472 57.5507369,175.209225 C57.5918124,184.509978 59.1705204,186.683452 67.8541356,191.707522 C76.5377508,196.731593 82.15165,194.079579 85.5514084,187.105975 C88.9511667,180.132371 94.0568174,167.459389 94.0568174,167.459389 C94.0568174,167.459389 105.315792,189.155074 103.930904,200.119607 C102.546016,211.084141 92.7535562,224.048421 74.7634462,222.486126 C56.7733362,220.92383 46.2694912,215.80838 37.6750362,200.119607 C29.0805813,184.430835 27.2691429,160.010718 32.8293758,143.324254 C38.3896087,126.63779 50.6881739,112.498392 67.8541356,106.157094 C85.0200972,99.8157962 98.5768277,103.865681 114.125917,110.90318 C129.675006,117.940679 157.121799,148.10107 158.49769,175.209225 C159.87358,202.31738 151.5735,230.461967 151.5735,230.461967 Z" id="Path-20" fill="#FFFFFF" sketch:type="MSShapeGroup"></path>
            <circle id="border" stroke="#FFFFFF" stroke-width="15" sketch:type="MSShapeGroup" cx="162" cy="162" r="162"></circle>
        </g>
    </g>
</svg>